<svg width="142" height="54" viewBox="0 0 142 54" fill="none" xmlns="http://www.w3.org/2000/svg">
<path d="M7.872 40C6.592 40 5.41867 39.7227 4.352 39.168C3.30667 38.6133 2.47467 37.856 1.856 36.896C1.23733 35.9147 0.928 34.784 0.928 33.504C0.928 32.5013 1.152 31.5627 1.6 30.688C2.06933 29.792 2.70933 29.0453 3.52 28.448C2.816 27.8933 2.25067 27.2213 1.824 26.432C1.39733 25.6213 1.184 24.7893 1.184 23.936C1.184 22.6773 1.48267 21.5787 2.08 20.64C2.69867 19.68 3.52 18.9333 4.544 18.4C5.58933 17.8667 6.73067 17.6 7.968 17.6H17.92V23.008H9.504C9.16267 23.008 8.85333 23.072 8.576 23.2C8.29867 23.3067 8.07467 23.4773 7.904 23.712C7.75467 23.9253 7.68 24.2027 7.68 24.544C7.68 24.864 7.75467 25.1413 7.904 25.376C8.07467 25.5893 8.29867 25.76 8.576 25.888C8.85333 25.9947 9.16267 26.048 9.504 26.048H16.8V31.424H9.536C9.17333 31.424 8.85333 31.488 8.576 31.616C8.29867 31.744 8.07467 31.9253 7.904 32.16C7.75467 32.3947 7.68 32.6827 7.68 33.024C7.68 33.344 7.75467 33.6213 7.904 33.856C8.07467 34.0907 8.29867 34.272 8.576 34.4C8.85333 34.5067 9.17333 34.56 9.536 34.56H17.92V40H7.872ZM23.3825 40.416C22.4652 40.416 21.6865 40.0853 21.0465 39.424C20.4065 38.7627 20.0865 37.984 20.0865 37.088C20.0865 36.1707 20.4065 35.392 21.0465 34.752C21.6865 34.0907 22.4652 33.76 23.3825 33.76C24.2998 33.76 25.0785 34.0907 25.7185 34.752C26.3798 35.392 26.7105 36.1707 26.7105 37.088C26.7105 37.6853 26.5612 38.24 26.2625 38.752C25.9638 39.2427 25.5585 39.648 25.0465 39.968C24.5558 40.2667 24.0012 40.416 23.3825 40.416ZM46.089 40.416C44.7237 40.416 43.433 40.1387 42.217 39.584C41.0223 39.0293 40.0517 38.208 39.305 37.12C38.5583 36.032 38.185 34.6987 38.185 33.12V24.448C38.185 24.1707 38.121 23.936 37.993 23.744C37.8863 23.5307 37.737 23.3707 37.545 23.264C37.353 23.1573 37.129 23.104 36.873 23.104C36.617 23.104 36.3823 23.1573 36.169 23.264C35.977 23.3707 35.817 23.5307 35.689 23.744C35.5823 23.936 35.529 24.1707 35.529 24.448V40H28.937V24.512C28.937 22.9547 29.2997 21.632 30.025 20.544C30.7717 19.456 31.753 18.624 32.969 18.048C34.185 17.472 35.4863 17.184 36.873 17.184C38.2597 17.184 39.5503 17.472 40.745 18.048C41.9397 18.624 42.9103 19.456 43.657 20.544C44.4037 21.632 44.777 22.9547 44.777 24.512V33.184C44.777 33.4613 44.841 33.7067 44.969 33.92C45.097 34.112 45.257 34.2613 45.449 34.368C45.641 34.4747 45.8437 34.528 46.057 34.528C46.2917 34.528 46.5157 34.4747 46.729 34.368C46.9423 34.2613 47.113 34.112 47.241 33.92C47.369 33.7067 47.433 33.4613 47.433 33.184V24.512C47.433 22.9547 47.8063 21.632 48.553 20.544C49.2997 19.456 50.2703 18.624 51.465 18.048C52.681 17.472 53.9717 17.184 55.337 17.184C56.7023 17.184 57.9823 17.472 59.177 18.048C60.3717 18.624 61.3423 19.456 62.089 20.544C62.8357 21.632 63.209 22.9547 63.209 24.512V40H56.649V24.352C56.649 24.096 56.585 23.8827 56.457 23.712C56.329 23.52 56.169 23.3707 55.977 23.264C55.785 23.1573 55.5717 23.104 55.337 23.104C55.1023 23.104 54.8783 23.1573 54.665 23.264C54.4517 23.3707 54.281 23.52 54.153 23.712C54.0463 23.8827 53.993 24.096 53.993 24.352V33.12C53.993 34.6987 53.609 36.032 52.841 37.12C52.0943 38.208 51.1237 39.0293 49.929 39.584C48.7343 40.1387 47.4543 40.416 46.089 40.416ZM75.9233 40.384C73.9606 40.384 72.2219 40.0107 70.7073 39.264C69.2139 38.496 68.0406 37.408 67.1873 36C66.3339 34.592 65.9073 32.928 65.9073 31.008V17.6H72.6913V31.296C72.6913 31.9787 72.8193 32.5973 73.0753 33.152C73.3526 33.6853 73.7259 34.1013 74.1953 34.4C74.6859 34.6987 75.2513 34.848 75.8913 34.848C76.5526 34.848 77.1179 34.6987 77.5873 34.4C78.0566 34.1013 78.4193 33.6853 78.6753 33.152C78.9526 32.5973 79.0913 31.9787 79.0913 31.296V17.6H85.8753V31.008C85.8753 32.928 85.4486 34.592 84.5953 36C83.7419 37.408 82.5686 38.496 81.0753 39.264C79.5819 40.0107 77.8646 40.384 75.9233 40.384ZM89.0108 40V34.592H98.5148C98.8774 34.592 99.1761 34.5173 99.4108 34.368C99.6668 34.2187 99.8588 34.0267 99.9868 33.792C100.136 33.536 100.211 33.2693 100.211 32.992C100.211 32.6933 100.136 32.4267 99.9868 32.192C99.8588 31.936 99.6668 31.7333 99.4108 31.584C99.1761 31.4347 98.8774 31.36 98.5148 31.36H95.6348C94.2481 31.36 92.9894 31.0933 91.8588 30.56C90.7281 30.0267 89.8214 29.2587 89.1388 28.256C88.4774 27.232 88.1468 26.0053 88.1468 24.576C88.1468 23.168 88.4668 21.9413 89.1068 20.896C89.7468 19.8507 90.6108 19.04 91.6988 18.464C92.7868 17.888 93.9921 17.6 95.3148 17.6H105.523V23.008H96.2428C95.9441 23.008 95.6774 23.072 95.4427 23.2C95.2294 23.328 95.0588 23.4987 94.9308 23.712C94.8241 23.9253 94.7708 24.16 94.7708 24.416C94.7708 24.672 94.8241 24.9067 94.9308 25.12C95.0588 25.3333 95.2294 25.5147 95.4427 25.664C95.6774 25.792 95.9441 25.856 96.2428 25.856H99.3468C100.861 25.856 102.184 26.144 103.315 26.72C104.445 27.2747 105.32 28.0533 105.939 29.056C106.557 30.0587 106.867 31.2427 106.867 32.608C106.867 34.1653 106.536 35.4987 105.875 36.608C105.235 37.7173 104.371 38.56 103.283 39.136C102.195 39.712 100.989 40 99.6668 40H89.0108ZM108.774 40V34.592H112.262V23.008H108.774V17.6H122.694V23.008H119.174V34.592H122.694V40H108.774ZM137.256 40C135.25 40 133.458 39.7333 131.88 39.2C130.301 38.6667 128.968 37.8987 127.88 36.896C126.792 35.8933 125.96 34.7093 125.384 33.344C124.808 31.9787 124.52 30.464 124.52 28.8C124.52 27.136 124.808 25.6213 125.384 24.256C125.96 22.8907 126.792 21.7067 127.88 20.704C128.989 19.7013 130.322 18.9333 131.88 18.4C133.458 17.8667 135.25 17.6 137.256 17.6H140.648V23.008H137.48C136.498 23.008 135.634 23.1573 134.888 23.456C134.141 23.7547 133.522 24.1707 133.032 24.704C132.541 25.216 132.168 25.824 131.911 26.528C131.677 27.232 131.56 27.9893 131.56 28.8C131.56 29.6107 131.677 30.368 131.911 31.072C132.168 31.776 132.541 32.3947 133.032 32.928C133.522 33.44 134.141 33.8453 134.888 34.144C135.634 34.4427 136.498 34.592 137.48 34.592H140.648V40H137.256Z" fill="#CD6666"/>
<path d="M7.872 37C6.592 37 5.41867 36.7227 4.352 36.168C3.30667 35.6133 2.47467 34.856 1.856 33.896C1.23733 32.9147 0.928 31.784 0.928 30.504C0.928 29.5013 1.152 28.5627 1.6 27.688C2.06933 26.792 2.70933 26.0453 3.52 25.448C2.816 24.8933 2.25067 24.2213 1.824 23.432C1.39733 22.6213 1.184 21.7893 1.184 20.936C1.184 19.6773 1.48267 18.5787 2.08 17.64C2.69867 16.68 3.52 15.9333 4.544 15.4C5.58933 14.8667 6.73067 14.6 7.968 14.6H17.92V20.008H9.504C9.16267 20.008 8.85333 20.072 8.576 20.2C8.29867 20.3067 8.07467 20.4773 7.904 20.712C7.75467 20.9253 7.68 21.2027 7.68 21.544C7.68 21.864 7.75467 22.1413 7.904 22.376C8.07467 22.5893 8.29867 22.76 8.576 22.888C8.85333 22.9947 9.16267 23.048 9.504 23.048H16.8V28.424H9.536C9.17333 28.424 8.85333 28.488 8.576 28.616C8.29867 28.744 8.07467 28.9253 7.904 29.16C7.75467 29.3947 7.68 29.6827 7.68 30.024C7.68 30.344 7.75467 30.6213 7.904 30.856C8.07467 31.0907 8.29867 31.272 8.576 31.4C8.85333 31.5067 9.17333 31.56 9.536 31.56H17.92V37H7.872ZM23.3825 37.416C22.4652 37.416 21.6865 37.0853 21.0465 36.424C20.4065 35.7627 20.0865 34.984 20.0865 34.088C20.0865 33.1707 20.4065 32.392 21.0465 31.752C21.6865 31.0907 22.4652 30.76 23.3825 30.76C24.2998 30.76 25.0785 31.0907 25.7185 31.752C26.3798 32.392 26.7105 33.1707 26.7105 34.088C26.7105 34.6853 26.5612 35.24 26.2625 35.752C25.9638 36.2427 25.5585 36.648 25.0465 36.968C24.5558 37.2667 24.0012 37.416 23.3825 37.416ZM46.089 37.416C44.7237 37.416 43.433 37.1387 42.217 36.584C41.0223 36.0293 40.0517 35.208 39.305 34.12C38.5583 33.032 38.185 31.6987 38.185 30.12V21.448C38.185 21.1707 38.121 20.936 37.993 20.744C37.8863 20.5307 37.737 20.3707 37.545 20.264C37.353 20.1573 37.129 20.104 36.873 20.104C36.617 20.104 36.3823 20.1573 36.169 20.264C35.977 20.3707 35.817 20.5307 35.689 20.744C35.5823 20.936 35.529 21.1707 35.529 21.448V37H28.937V21.512C28.937 19.9547 29.2997 18.632 30.025 17.544C30.7717 16.456 31.753 15.624 32.969 15.048C34.185 14.472 35.4863 14.184 36.873 14.184C38.2597 14.184 39.5503 14.472 40.745 15.048C41.9397 15.624 42.9103 16.456 43.657 17.544C44.4037 18.632 44.777 19.9547 44.777 21.512V30.184C44.777 30.4613 44.841 30.7067 44.969 30.92C45.097 31.112 45.257 31.2613 45.449 31.368C45.641 31.4747 45.8437 31.528 46.057 31.528C46.2917 31.528 46.5157 31.4747 46.729 31.368C46.9423 31.2613 47.113 31.112 47.241 30.92C47.369 30.7067 47.433 30.4613 47.433 30.184V21.512C47.433 19.9547 47.8063 18.632 48.553 17.544C49.2997 16.456 50.2703 15.624 51.465 15.048C52.681 14.472 53.9717 14.184 55.337 14.184C56.7023 14.184 57.9823 14.472 59.177 15.048C60.3717 15.624 61.3423 16.456 62.089 17.544C62.8357 18.632 63.209 19.9547 63.209 21.512V37H56.649V21.352C56.649 21.096 56.585 20.8827 56.457 20.712C56.329 20.52 56.169 20.3707 55.977 20.264C55.785 20.1573 55.5717 20.104 55.337 20.104C55.1023 20.104 54.8783 20.1573 54.665 20.264C54.4517 20.3707 54.281 20.52 54.153 20.712C54.0463 20.8827 53.993 21.096 53.993 21.352V30.12C53.993 31.6987 53.609 33.032 52.841 34.12C52.0943 35.208 51.1237 36.0293 49.929 36.584C48.7343 37.1387 47.4543 37.416 46.089 37.416ZM75.9233 37.384C73.9606 37.384 72.2219 37.0107 70.7073 36.264C69.2139 35.496 68.0406 34.408 67.1873 33C66.3339 31.592 65.9073 29.928 65.9073 28.008V14.6H72.6913V28.296C72.6913 28.9787 72.8193 29.5973 73.0753 30.152C73.3526 30.6853 73.7259 31.1013 74.1953 31.4C74.6859 31.6987 75.2513 31.848 75.8913 31.848C76.5526 31.848 77.1179 31.6987 77.5873 31.4C78.0566 31.1013 78.4193 30.6853 78.6753 30.152C78.9526 29.5973 79.0913 28.9787 79.0913 28.296V14.6H85.8753V28.008C85.8753 29.928 85.4486 31.592 84.5953 33C83.7419 34.408 82.5686 35.496 81.0753 36.264C79.5819 37.0107 77.8646 37.384 75.9233 37.384ZM89.0108 37V31.592H98.5148C98.8774 31.592 99.1761 31.5173 99.4108 31.368C99.6668 31.2187 99.8588 31.0267 99.9868 30.792C100.136 30.536 100.211 30.2693 100.211 29.992C100.211 29.6933 100.136 29.4267 99.9868 29.192C99.8588 28.936 99.6668 28.7333 99.4108 28.584C99.1761 28.4347 98.8774 28.36 98.5148 28.36H95.6348C94.2481 28.36 92.9894 28.0933 91.8588 27.56C90.7281 27.0267 89.8214 26.2587 89.1388 25.256C88.4774 24.232 88.1468 23.0053 88.1468 21.576C88.1468 20.168 88.4668 18.9413 89.1068 17.896C89.7468 16.8507 90.6108 16.04 91.6988 15.464C92.7868 14.888 93.9921 14.6 95.3148 14.6H105.523V20.008H96.2428C95.9441 20.008 95.6774 20.072 95.4427 20.2C95.2294 20.328 95.0588 20.4987 94.9308 20.712C94.8241 20.9253 94.7708 21.16 94.7708 21.416C94.7708 21.672 94.8241 21.9067 94.9308 22.12C95.0588 22.3333 95.2294 22.5147 95.4427 22.664C95.6774 22.792 95.9441 22.856 96.2428 22.856H99.3468C100.861 22.856 102.184 23.144 103.315 23.72C104.445 24.2747 105.32 25.0533 105.939 26.056C106.557 27.0587 106.867 28.2427 106.867 29.608C106.867 31.1653 106.536 32.4987 105.875 33.608C105.235 34.7173 104.371 35.56 103.283 36.136C102.195 36.712 100.989 37 99.6668 37H89.0108ZM108.774 37V31.592H112.262V20.008H108.774V14.6H122.694V20.008H119.174V31.592H122.694V37H108.774ZM137.256 37C135.25 37 133.458 36.7333 131.88 36.2C130.301 35.6667 128.968 34.8987 127.88 33.896C126.792 32.8933 125.96 31.7093 125.384 30.344C124.808 28.9787 124.52 27.464 124.52 25.8C124.52 24.136 124.808 22.6213 125.384 21.256C125.96 19.8907 126.792 18.7067 127.88 17.704C128.989 16.7013 130.322 15.9333 131.88 15.4C133.458 14.8667 135.25 14.6 137.256 14.6H140.648V20.008H137.48C136.498 20.008 135.634 20.1573 134.888 20.456C134.141 20.7547 133.522 21.1707 133.032 21.704C132.541 22.216 132.168 22.824 131.911 23.528C131.677 24.232 131.56 24.9893 131.56 25.8C131.56 26.6107 131.677 27.368 131.911 28.072C132.168 28.776 132.541 29.3947 133.032 29.928C133.522 30.44 134.141 30.8453 134.888 31.144C135.634 31.4427 136.498 31.592 137.48 31.592H140.648V37H137.256Z" fill="#F87171"/>
</svg>
